HIERARCHY
ROOT Hips
{
	OFFSET 0.000000 0.000000 0.000000
	CHANNELS 6 Xposition Yposition Zposition Xrotation Yrotation Zrotation
	JOINT LeftUpLeg_virtual
	{
		OFFSET 0.000000 0.000000 0.000000
		CHANNELS 3 Xrotation Yrotation Zrotation
		JOINT LeftUpLeg
		{
			OFFSET 13.026900 -6.336304 -1.092800
			CHANNELS 3 Xrotation Yrotation Zrotation
			JOINT LeftLeg
			{
				OFFSET 0.524474 -46.096886 9.782700
				CHANNELS 3 Xrotation Yrotation Zrotation
				JOINT LeftFoot
				{
					OFFSET -0.524474 -53.427422 -12.948200
					CHANNELS 3 Xrotation Yrotation Zrotation
					JOINT LeftToeBase
					{
						OFFSET 0.192200 -14.009700 16.364100
						CHANNELS 3 Xrotation Yrotation Zrotation
						JOINT LeftToe_End
						{
							OFFSET -1.784700 -0.561700 9.474800
							CHANNELS 3 Xrotation Yrotation Zrotation
							End Site
							{
								OFFSET 0 0 0
							}
						}
					}
				}
			}
		}
	}
	JOINT RightUpLeg_virtual
	{
		OFFSET 0.000000 0.000000 0.000000
		CHANNELS 3 Xrotation Yrotation Zrotation
		JOINT RightUpLeg
		{
			OFFSET -12.883000 -6.336304 -1.092800
			CHANNELS 3 Xrotation Yrotation Zrotation
			JOINT RightLeg
			{
				OFFSET -0.524587 -46.096825 9.782800
				CHANNELS 3 Xrotation Yrotation Zrotation
				JOINT RightFoot
				{
					OFFSET 0.524587 -53.427383 -12.948300
					CHANNELS 3 Xrotation Yrotation Zrotation
					JOINT RightToeBase
					{
						OFFSET -0.192200 -14.009700 16.364100
						CHANNELS 3 Xrotation Yrotation Zrotation
						JOINT RightToe_End
						{
							OFFSET 1.784700 -0.561700 9.474800
							CHANNELS 3 Xrotation Yrotation Zrotation
							End Site
							{
								OFFSET 0 0 0
							}
						}
					}
				}
			}
		}
	}
	JOINT Spine_virtual
	{
		OFFSET 0.000000 0.000000 0.000000
		CHANNELS 3 Xrotation Yrotation Zrotation
		JOINT Spine
		{
			OFFSET 0.072000 7.257294 -0.789700
			CHANNELS 3 Xrotation Yrotation Zrotation
			JOINT Spine1
			{
				OFFSET 0.000000 12.508769 -0.658067
				CHANNELS 3 Xrotation Yrotation Zrotation
				JOINT Spine1_split
				{
					OFFSET 0.000000 12.508769 -0.658067
					CHANNELS 3 Xrotation Yrotation Zrotation
					JOINT Spine2
					{
						OFFSET 0.000000 12.508769 -0.658067
						CHANNELS 3 Xrotation Yrotation Zrotation
						JOINT Neck_virtual
						{
							OFFSET 0.000000 0.000000 0.000000
							CHANNELS 3 Xrotation Yrotation Zrotation
							JOINT Neck
							{
								OFFSET 0.000000 14.033295 7.520400
								CHANNELS 3 Xrotation Yrotation Zrotation
								JOINT Head
								{
									OFFSET 0.000000 8.198502 5.703100
									CHANNELS 3 Xrotation Yrotation Zrotation
									JOINT HeadTop_End
									{
										OFFSET 0.000000 17.760803 13.332701
										CHANNELS 3 Xrotation Yrotation Zrotation
										End Site
										{
											OFFSET 0 0 0
										}
									}
								}
							}
						}
						JOINT LeftShoulder_virtual
						{
							OFFSET 0.000000 0.000000 0.000000
							CHANNELS 3 Xrotation Yrotation Zrotation
							JOINT LeftShoulder
							{
								OFFSET 6.292450 5.785301 -0.669000
								CHANNELS 3 Xrotation Yrotation Zrotation
								JOINT LeftShoulder_split
								{
									OFFSET 6.292450 5.785301 -0.669000
									CHANNELS 3 Xrotation Yrotation Zrotation
									JOINT LeftArm
									{
										OFFSET 13.907140 -6.093903 1.965100
										CHANNELS 3 Xrotation Yrotation Zrotation
										JOINT LeftForeArm
										{
											OFFSET 34.140198 0.000000 0.000000
											CHANNELS 3 Xrotation Yrotation Zrotation
											JOINT LeftHand
											{
												OFFSET 40.960209 0.000000 0.000000
												CHANNELS 3 Xrotation Yrotation Zrotation
												End Site
												{
													OFFSET 0 0 0
												}
											}
										}
									}
								}
							}
						}
						JOINT RightShoulder_virtual
						{
							OFFSET 0.000000 0.000000 0.000000
							CHANNELS 3 Xrotation Yrotation Zrotation
							JOINT RightShoulder
							{
								OFFSET -6.292450 5.785301 -0.669000
								CHANNELS 3 Xrotation Yrotation Zrotation
								JOINT RightShoulder_split
								{
									OFFSET -6.292450 5.785301 -0.669000
									CHANNELS 3 Xrotation Yrotation Zrotation
									JOINT RightArm
									{
										OFFSET -13.907140 -6.093903 1.965100
										CHANNELS 3 Xrotation Yrotation Zrotation
										JOINT RightForeArm
										{
											OFFSET -34.140198 0.000000 0.000000
											CHANNELS 3 Xrotation Yrotation Zrotation
											JOINT RightHand
											{
												OFFSET -40.960209 0.000000 0.000000
												CHANNELS 3 Xrotation Yrotation Zrotation
												End Site
												{
													OFFSET 0 0 0
												}
											}
										}
									}
								}
							}
						}
					}
				}
			}
		}
	}
}
MOTION
Frames: 5
Frame Time: 0.03333333
-1.145225 95.926552 0.541138 0.000000 0.000000 0.000000 11.742485 -49.637983 11.853768 -66.339776 27.373346 41.603481 43.629636 -19.169298 3.300860 6.151850 0.696931 -10.402037 -0.949337 -6.111337 0.985535 0.000000 0.000000 0.000000 11.742485 -49.637983 11.853768 -33.768476 0.305387 -25.532041 50.491422 2.246031 -6.583207 -23.897281 -2.615371 25.261381 0.528301 2.970133 1.471367 0.000000 0.000000 0.000000 11.742485 -49.637983 11.853768 10.998299 2.884818 -2.598211 6.100715 5.566538 -4.284695 0.000000 0.000000 0.000000 0.000000 0.000000 0.000000 -5.786931 6.328145 -3.046190 2.317272 9.363503 -0.265714 -4.145193 23.161793 -3.522661 0.000000 0.000000 0.000000 -5.786931 6.328145 -3.046190 -1.915073 -16.511777 -2.939003 0.000000 0.000000 0.000000 -10.486667 2.625041 -45.366352 -22.934653 -26.042299 -16.052432 0.000000 0.000000 0.000000 -5.786931 6.328145 -3.046190 -5.102372 24.651553 1.530440 0.000000 0.000000 0.000000 6.852330 -35.149967 57.689233 -21.079513 44.888912 20.017003 0.000000 0.000000 0.000000 
-0.531857 96.302467 0.022957 0.000000 0.000000 0.000000 11.619561 -49.462758 11.612575 -66.318603 27.630769 41.237694 42.662150 -19.447555 3.211105 6.984420 0.859629 -10.117515 -0.949424 -6.111323 0.985235 0.000000 0.000000 0.000000 11.619561 -49.462758 11.612575 -33.821256 0.322059 -25.072265 50.043970 2.030101 -6.753781 -23.538370 -2.928324 25.232703 0.691041 3.168747 1.304235 0.000000 0.000000 0.000000 11.619561 -49.462758 11.612575 10.800470 2.828839 -2.451924 6.253148 5.455820 -4.730129 0.000000 0.000000 0.000000 0.000000 0.000000 0.000000 -5.604863 6.319125 -3.448270 2.918538 9.797427 -0.772801 -4.285428 23.230973 -3.582197 0.000000 0.000000 0.000000 -5.604863 6.319125 -3.448270 -1.950320 -16.377045 -3.316427 0.000000 0.000000 0.000000 -12.793721 0.478098 -45.036167 -20.515373 -22.352276 -13.137842 0.000000 0.000000 0.000000 -5.604863 6.319125 -3.448270 -4.920680 23.574268 1.114869 0.000000 0.000000 0.000000 5.639805 -34.678055 56.669659 -22.473114 45.269633 21.754007 0.000000 0.000000 0.000000 
0.055382 96.674026 -0.746941 0.000000 0.000000 0.000000 11.540433 -50.103932 11.737368 -65.772973 28.053047 41.054420 41.427973 -19.429342 3.111008 7.816003 1.347330 -10.270107 -0.948937 -6.111318 0.986070 0.000000 0.000000 0.000000 11.540433 -50.103932 11.737368 -34.519766 0.496356 -24.698541 49.970661 2.823463 -6.926901 -23.193733 -3.163187 24.858728 1.275895 3.411963 1.140825 0.000000 0.000000 0.000000 11.540433 -50.103932 11.737368 10.995681 2.538503 -2.725199 6.354282 5.276295 -5.097350 0.000000 0.000000 0.000000 0.000000 0.000000 0.000000 -5.456687 6.268701 -3.745261 3.317681 11.210757 -2.259806 -4.432837 23.483659 -3.578624 0.000000 0.000000 0.000000 -5.456687 6.268701 -3.745261 -1.995280 -14.975005 -4.449681 0.000000 0.000000 0.000000 -15.399647 -1.800125 -44.184825 -16.719345 -18.848441 -10.461578 0.000000 0.000000 0.000000 -5.456687 6.268701 -3.745261 -4.584625 21.996486 0.859061 0.000000 0.000000 0.000000 3.917470 -34.011074 54.545771 -24.794680 47.064293 25.390658 0.000000 0.000000 0.000000 
0.585135 97.037933 -1.673393 0.000000 0.000000 0.000000 12.491565 -53.224601 12.787133 -64.584889 28.062799 42.082127 40.200899 -17.599970 3.095380 8.108619 1.952175 -11.577477 -0.949198 -6.111324 0.985913 0.000000 0.000000 0.000000 12.491565 -53.224601 12.787133 -36.551252 1.649127 -23.521737 50.019272 5.409710 -7.106817 -21.680634 -3.058544 25.010148 1.609080 3.663179 0.938488 0.000000 0.000000 0.000000 12.491565 -53.224601 12.787133 10.999238 2.132145 -2.703579 6.622249 4.954803 -5.562626 0.000000 0.000000 0.000000 0.000000 0.000000 0.000000 -5.105699 6.139135 -4.118086 3.738907 13.663723 -4.400193 -5.183708 24.398315 -4.154503 0.000000 0.000000 0.000000 -5.105699 6.139135 -4.118086 -1.981546 -13.332537 -5.802921 0.000000 0.000000 0.000000 -15.999493 -1.606214 -43.044023 -13.164498 -18.160954 -9.218384 0.000000 0.000000 0.000000 -5.105699 6.139135 -4.118086 -4.212522 21.033451 1.004108 0.000000 0.000000 0.000000 0.695065 -32.792558 50.817615 -27.747802 50.323864 30.421540 0.000000 0.000000 0.000000 
1.088354 97.454033 -2.710217 0.000000 0.000000 0.000000 14.772709 -58.409162 15.077936 -62.725493 28.062708 43.846280 39.055356 -16.579186 3.037433 8.105605 5.109554 -13.800918 -0.949355 -6.111351 0.985009 0.000000 0.000000 0.000000 14.772709 -58.409162 15.077936 -39.517490 3.301005 -21.333958 49.943036 8.694150 -7.194030 -19.578421 -2.555280 24.306053 1.658372 4.286854 0.348688 0.000000 0.000000 0.000000 14.772709 -58.409162 15.077936 11.022505 1.581266 -2.630017 6.983145 4.491697 -6.024192 0.000000 0.000000 0.000000 0.000000 0.000000 0.000000 -4.638929 5.917005 -4.492119 3.198364 16.851391 -6.419503 -5.696943 25.780474 -5.084026 0.000000 0.000000 0.000000 -4.638929 5.917005 -4.492119 -1.767450 -10.956385 -6.848842 0.000000 0.000000 0.000000 -15.155334 0.099812 -42.101238 -10.572634 -19.057736 -8.624094 0.000000 0.000000 0.000000 -4.638929 5.917005 -4.492119 -3.613079 18.723791 1.244314 0.000000 0.000000 0.000000 -4.736871 -27.854364 45.593674 -29.494690 52.631215 34.309229 0.000000 0.000000 0.000000 
